<svg id="图层_5" data-name="图层 5" xmlns="http://www.w3.org/2000/svg" xmlns:xlink="http://www.w3.org/1999/xlink" viewBox="0 0 1024 1024"><defs><style>.cls-1{fill:none;}.cls-2{fill:#bcff2e;opacity:0;}.cls-3{fill:#bac4cc;}.cls-4{fill:url(#未命名的渐变_2);}.cls-5{clip-path:url(#clip-path);}.cls-6{fill:url(#未命名的渐变_2-2);}</style><radialGradient id="未命名的渐变_2" cx="512.03" cy="402.02" r="162.29" gradientUnits="userSpaceOnUse"><stop offset="0" stop-color="#fff"/><stop offset="1" stop-color="#dadbdb"/></radialGradient><clipPath id="clip-path"><path class="cls-1" d="M188.33,821.72a448,448,0,0,0,647.36,0C778.26,700.67,654.92,617,512,617S245.76,700.67,188.33,821.72"/></clipPath><radialGradient id="未命名的渐变_2-2" cx="-232.58" cy="835.38" r="44.8" gradientTransform="matrix(0, -18.07, -18.07, 0, 15594.69, -3192.99)" xlink:href="#未命名的渐变_2"/></defs><title>tubiao_renxiang</title><rect class="cls-2" width="1024" height="1024"/><path class="cls-3" d="M960,512c0,247.43-200.57,448-448,448S64,759.43,64,512,264.61,64,512,64,960,264.57,960,512"/><path class="cls-4" d="M349.74,402A162.29,162.29,0,1,0,512,239.73,162.26,162.26,0,0,0,349.74,402"/><g class="cls-5"><rect class="cls-6" x="188.33" y="616.99" width="647.36" height="342.99"/></g></svg>